<mxfile host="app.diagrams.net" modified="2021-12-22T22:29:15.558Z" agent="5.0 (Windows NT 10.0; Win64; x64) AppleWebKit/537.36 (KHTML, like Gecko) Chrome/96.0.4664.110 Safari/537.36" etag="CdBiUk7bjVaDXD-qX88d" version="16.0.3" type="github">
  <diagram name="Page-1" id="52a04d89-c75d-2922-d76d-85b35f80e030">
    <mxGraphModel dx="1117" dy="669" grid="1" gridSize="10" guides="1" tooltips="1" connect="1" arrows="1" fold="1" page="1" pageScale="1" pageWidth="1100" pageHeight="850" background="none" math="0" shadow="0">
      <root>
        <mxCell id="0" />
        <mxCell id="1" parent="0" />
        <mxCell id="21ea969265ad0168-30" value="Database" style="html=1;rounded=0;shadow=0;comic=0;labelBackgroundColor=none;strokeWidth=2;fontFamily=Verdana;fontSize=12;align=center;shape=mxgraph.ios7ui.horLines;" parent="1" vertex="1">
          <mxGeometry x="920" y="1543.9099999999999" width="135" height="50" as="geometry" />
        </mxCell>
        <mxCell id="17472293e6e8944d-4" value="Database" style="html=1;rounded=0;shadow=0;comic=0;labelBackgroundColor=none;strokeWidth=2;fontFamily=Verdana;fontSize=12;align=center;shape=mxgraph.ios7ui.horLines;" parent="1" vertex="1">
          <mxGeometry x="920" y="1641.9099999999999" width="135" height="50" as="geometry" />
        </mxCell>
        <mxCell id="1fdf3b25b50cf41e-27" style="edgeStyle=none;html=1;labelBackgroundColor=none;startFill=0;startSize=8;endFill=1;endSize=8;fontFamily=Verdana;fontSize=12;entryX=0;entryY=0.5;entryDx=0;entryDy=0;" parent="1" source="17472293e6e8944d-30" target="vlWfW26GA2w-NV4Ox5dc-2" edge="1">
          <mxGeometry relative="1" as="geometry">
            <mxPoint x="360" y="80" as="targetPoint" />
          </mxGeometry>
        </mxCell>
        <mxCell id="17472293e6e8944d-30" value="&lt;div&gt;Student will choose a study plan&lt;/div&gt;" style="whiteSpace=wrap;html=1;rounded=0;shadow=0;comic=0;labelBackgroundColor=none;strokeWidth=1;fontFamily=Verdana;fontSize=12;align=center;" parent="1" vertex="1">
          <mxGeometry x="40" y="40" width="160" height="80" as="geometry" />
        </mxCell>
        <mxCell id="1fdf3b25b50cf41e-29" style="edgeStyle=none;html=1;labelBackgroundColor=none;startFill=0;startSize=8;endFill=1;endSize=8;fontFamily=Verdana;fontSize=12;" parent="1" target="1fdf3b25b50cf41e-7" edge="1">
          <mxGeometry relative="1" as="geometry">
            <mxPoint x="480.0000000000002" y="1279.9099999999999" as="sourcePoint" />
          </mxGeometry>
        </mxCell>
        <mxCell id="1fdf3b25b50cf41e-38" style="edgeStyle=orthogonalEdgeStyle;html=1;labelBackgroundColor=none;startFill=0;startSize=8;endFill=1;endSize=8;fontFamily=Verdana;fontSize=12;" parent="1" target="21ea969265ad0168-30" edge="1">
          <mxGeometry relative="1" as="geometry">
            <Array as="points">
              <mxPoint x="520" y="1305.9099999999999" />
            </Array>
            <mxPoint x="519.9999999999998" y="1279.9099999999999" as="sourcePoint" />
          </mxGeometry>
        </mxCell>
        <mxCell id="1fdf3b25b50cf41e-47" style="edgeStyle=orthogonalEdgeStyle;html=1;labelBackgroundColor=none;startFill=0;startSize=8;endFill=1;endSize=8;fontFamily=Verdana;fontSize=12;" parent="1" source="1fdf3b25b50cf41e-6" target="1fdf3b25b50cf41e-21" edge="1">
          <mxGeometry relative="1" as="geometry">
            <Array as="points">
              <mxPoint x="958" y="1255.9099999999999" />
            </Array>
          </mxGeometry>
        </mxCell>
        <mxCell id="1fdf3b25b50cf41e-6" value="Database" style="html=1;rounded=0;shadow=0;comic=0;labelBackgroundColor=none;strokeWidth=2;fontFamily=Verdana;fontSize=12;align=center;shape=mxgraph.ios7ui.horLines;" parent="1" vertex="1">
          <mxGeometry x="920" y="1432.9099999999999" width="135" height="50" as="geometry" />
        </mxCell>
        <mxCell id="1fdf3b25b50cf41e-35" style="edgeStyle=none;html=1;labelBackgroundColor=none;startFill=0;startSize=8;endFill=1;endSize=8;fontFamily=Verdana;fontSize=12;" parent="1" source="1fdf3b25b50cf41e-7" target="1fdf3b25b50cf41e-34" edge="1">
          <mxGeometry relative="1" as="geometry">
            <mxPoint x="550.0001622472457" y="1353.8402333127779" as="targetPoint" />
          </mxGeometry>
        </mxCell>
        <mxCell id="1fdf3b25b50cf41e-39" style="edgeStyle=none;html=1;labelBackgroundColor=none;startFill=0;startSize=8;endFill=1;endSize=8;fontFamily=Verdana;fontSize=12;" parent="1" source="1fdf3b25b50cf41e-7" target="1fdf3b25b50cf41e-26" edge="1">
          <mxGeometry relative="1" as="geometry" />
        </mxCell>
        <mxCell id="1fdf3b25b50cf41e-7" value="1.6" style="swimlane;html=1;fontStyle=0;childLayout=stackLayout;horizontal=1;startSize=26;fillColor=#e0e0e0;horizontalStack=0;resizeParent=1;resizeLast=0;collapsible=1;marginBottom=0;swimlaneFillColor=#ffffff;align=center;rounded=1;shadow=0;comic=0;labelBackgroundColor=none;strokeWidth=1;fontFamily=Verdana;fontSize=12" parent="1" vertex="1">
          <mxGeometry x="410" y="1327.9099999999999" width="140" height="52" as="geometry" />
        </mxCell>
        <mxCell id="1fdf3b25b50cf41e-8" value="Row 1" style="text;html=1;strokeColor=none;fillColor=none;spacingLeft=4;spacingRight=4;whiteSpace=wrap;overflow=hidden;rotatable=0;points=[[0,0.5],[1,0.5]];portConstraint=eastwest;align=center;" parent="1fdf3b25b50cf41e-7" vertex="1">
          <mxGeometry y="26" width="140" height="26" as="geometry" />
        </mxCell>
        <mxCell id="1fdf3b25b50cf41e-40" style="edgeStyle=none;html=1;labelBackgroundColor=none;startFill=0;startSize=8;endFill=1;endSize=8;fontFamily=Verdana;fontSize=12;" parent="1" source="1fdf3b25b50cf41e-9" target="1fdf3b25b50cf41e-7" edge="1">
          <mxGeometry relative="1" as="geometry" />
        </mxCell>
        <mxCell id="1fdf3b25b50cf41e-9" value="1.2" style="swimlane;html=1;fontStyle=0;childLayout=stackLayout;horizontal=1;startSize=26;fillColor=#e0e0e0;horizontalStack=0;resizeParent=1;resizeLast=0;collapsible=1;marginBottom=0;swimlaneFillColor=#ffffff;align=center;rounded=1;shadow=0;comic=0;labelBackgroundColor=none;strokeWidth=1;fontFamily=Verdana;fontSize=12" parent="1" vertex="1">
          <mxGeometry x="230" y="1326.9099999999999" width="140" height="52" as="geometry" />
        </mxCell>
        <mxCell id="1fdf3b25b50cf41e-10" value="Row 1" style="text;html=1;strokeColor=none;fillColor=none;spacingLeft=4;spacingRight=4;whiteSpace=wrap;overflow=hidden;rotatable=0;points=[[0,0.5],[1,0.5]];portConstraint=eastwest;align=center;" parent="1fdf3b25b50cf41e-9" vertex="1">
          <mxGeometry y="26" width="140" height="26" as="geometry" />
        </mxCell>
        <mxCell id="1fdf3b25b50cf41e-31" style="edgeStyle=orthogonalEdgeStyle;html=1;labelBackgroundColor=none;startFill=0;startSize=8;endFill=1;endSize=8;fontFamily=Verdana;fontSize=12;" parent="1" source="1fdf3b25b50cf41e-11" target="17472293e6e8944d-4" edge="1">
          <mxGeometry relative="1" as="geometry">
            <Array as="points">
              <mxPoint x="790" y="1403.9099999999999" />
            </Array>
          </mxGeometry>
        </mxCell>
        <mxCell id="1fdf3b25b50cf41e-11" value="1.9" style="swimlane;html=1;fontStyle=0;childLayout=stackLayout;horizontal=1;startSize=26;fillColor=#e0e0e0;horizontalStack=0;resizeParent=1;resizeLast=0;collapsible=1;marginBottom=0;swimlaneFillColor=#ffffff;align=center;rounded=1;shadow=0;comic=0;labelBackgroundColor=none;strokeWidth=1;fontFamily=Verdana;fontSize=12" parent="1" vertex="1">
          <mxGeometry x="720" y="1326.9099999999999" width="140" height="52" as="geometry" />
        </mxCell>
        <mxCell id="1fdf3b25b50cf41e-12" value="Row 1" style="text;html=1;strokeColor=none;fillColor=none;spacingLeft=4;spacingRight=4;whiteSpace=wrap;overflow=hidden;rotatable=0;points=[[0,0.5],[1,0.5]];portConstraint=eastwest;align=center;" parent="1fdf3b25b50cf41e-11" vertex="1">
          <mxGeometry y="26" width="140" height="26" as="geometry" />
        </mxCell>
        <mxCell id="1fdf3b25b50cf41e-43" style="edgeStyle=none;html=1;labelBackgroundColor=none;startFill=0;startSize=8;endFill=1;endSize=8;fontFamily=Verdana;fontSize=12;" parent="1" source="1fdf3b25b50cf41e-13" target="1fdf3b25b50cf41e-19" edge="1">
          <mxGeometry relative="1" as="geometry" />
        </mxCell>
        <mxCell id="1fdf3b25b50cf41e-13" value="1.3" style="swimlane;html=1;fontStyle=0;childLayout=stackLayout;horizontal=1;startSize=26;fillColor=#e0e0e0;horizontalStack=0;resizeParent=1;resizeLast=0;collapsible=1;marginBottom=0;swimlaneFillColor=#ffffff;align=center;rounded=1;shadow=0;comic=0;labelBackgroundColor=none;strokeWidth=1;fontFamily=Verdana;fontSize=12" parent="1" vertex="1">
          <mxGeometry x="230" y="1478.9099999999999" width="140" height="52" as="geometry" />
        </mxCell>
        <mxCell id="1fdf3b25b50cf41e-14" value="Row 1" style="text;html=1;strokeColor=none;fillColor=none;spacingLeft=4;spacingRight=4;whiteSpace=wrap;overflow=hidden;rotatable=0;points=[[0,0.5],[1,0.5]];portConstraint=eastwest;align=center;" parent="1fdf3b25b50cf41e-13" vertex="1">
          <mxGeometry y="26" width="140" height="26" as="geometry" />
        </mxCell>
        <mxCell id="1fdf3b25b50cf41e-46" style="edgeStyle=orthogonalEdgeStyle;html=1;labelBackgroundColor=none;startFill=0;startSize=8;endFill=1;endSize=8;fontFamily=Verdana;fontSize=12;" parent="1" source="1fdf3b25b50cf41e-15" target="1fdf3b25b50cf41e-6" edge="1">
          <mxGeometry relative="1" as="geometry">
            <Array as="points">
              <mxPoint x="630" y="1189.9099999999999" />
            </Array>
          </mxGeometry>
        </mxCell>
        <mxCell id="1fdf3b25b50cf41e-15" value="1.8" style="swimlane;html=1;fontStyle=0;childLayout=stackLayout;horizontal=1;startSize=26;fillColor=#e0e0e0;horizontalStack=0;resizeParent=1;resizeLast=0;collapsible=1;marginBottom=0;swimlaneFillColor=#ffffff;align=center;rounded=1;shadow=0;comic=0;labelBackgroundColor=none;strokeWidth=1;fontFamily=Verdana;fontSize=12" parent="1" vertex="1">
          <mxGeometry x="560" y="1477.9099999999999" width="140" height="52" as="geometry" />
        </mxCell>
        <mxCell id="1fdf3b25b50cf41e-16" value="Row 1" style="text;html=1;strokeColor=none;fillColor=none;spacingLeft=4;spacingRight=4;whiteSpace=wrap;overflow=hidden;rotatable=0;points=[[0,0.5],[1,0.5]];portConstraint=eastwest;align=center;" parent="1fdf3b25b50cf41e-15" vertex="1">
          <mxGeometry y="26" width="140" height="26" as="geometry" />
        </mxCell>
        <mxCell id="1fdf3b25b50cf41e-42" style="edgeStyle=none;html=1;labelBackgroundColor=none;startFill=0;startSize=8;endFill=1;endSize=8;fontFamily=Verdana;fontSize=12;" parent="1" source="1fdf3b25b50cf41e-17" target="1fdf3b25b50cf41e-25" edge="1">
          <mxGeometry relative="1" as="geometry" />
        </mxCell>
        <mxCell id="1fdf3b25b50cf41e-17" value="1.1" style="swimlane;html=1;fontStyle=0;childLayout=stackLayout;horizontal=1;startSize=26;fillColor=#e0e0e0;horizontalStack=0;resizeParent=1;resizeLast=0;collapsible=1;marginBottom=0;swimlaneFillColor=#ffffff;align=center;rounded=1;shadow=0;comic=0;labelBackgroundColor=none;strokeWidth=1;fontFamily=Verdana;fontSize=12" parent="1" vertex="1">
          <mxGeometry x="30" y="1613.9099999999999" width="140" height="52" as="geometry" />
        </mxCell>
        <mxCell id="1fdf3b25b50cf41e-18" value="Row 1" style="text;html=1;strokeColor=none;fillColor=none;spacingLeft=4;spacingRight=4;whiteSpace=wrap;overflow=hidden;rotatable=0;points=[[0,0.5],[1,0.5]];portConstraint=eastwest;align=center;" parent="1fdf3b25b50cf41e-17" vertex="1">
          <mxGeometry y="26" width="140" height="26" as="geometry" />
        </mxCell>
        <mxCell id="1fdf3b25b50cf41e-44" style="edgeStyle=none;html=1;labelBackgroundColor=none;startFill=0;startSize=8;endFill=1;endSize=8;fontFamily=Verdana;fontSize=12;" parent="1" source="1fdf3b25b50cf41e-19" target="1fdf3b25b50cf41e-21" edge="1">
          <mxGeometry relative="1" as="geometry" />
        </mxCell>
        <mxCell id="1fdf3b25b50cf41e-48" style="edgeStyle=none;html=1;labelBackgroundColor=none;startFill=0;startSize=8;endFill=1;endSize=8;fontFamily=Verdana;fontSize=12;" parent="1" source="1fdf3b25b50cf41e-19" target="1fdf3b25b50cf41e-17" edge="1">
          <mxGeometry relative="1" as="geometry" />
        </mxCell>
        <mxCell id="1fdf3b25b50cf41e-19" value="1.4" style="swimlane;html=1;fontStyle=0;childLayout=stackLayout;horizontal=1;startSize=26;fillColor=#e0e0e0;horizontalStack=0;resizeParent=1;resizeLast=0;collapsible=1;marginBottom=0;swimlaneFillColor=#ffffff;align=center;rounded=1;shadow=0;comic=0;labelBackgroundColor=none;strokeWidth=1;fontFamily=Verdana;fontSize=12" parent="1" vertex="1">
          <mxGeometry x="230" y="1613.9099999999999" width="140" height="52" as="geometry" />
        </mxCell>
        <mxCell id="1fdf3b25b50cf41e-20" value="Row 1" style="text;html=1;strokeColor=none;fillColor=none;spacingLeft=4;spacingRight=4;whiteSpace=wrap;overflow=hidden;rotatable=0;points=[[0,0.5],[1,0.5]];portConstraint=eastwest;align=center;" parent="1fdf3b25b50cf41e-19" vertex="1">
          <mxGeometry y="26" width="140" height="26" as="geometry" />
        </mxCell>
        <mxCell id="1fdf3b25b50cf41e-45" style="edgeStyle=none;html=1;labelBackgroundColor=none;startFill=0;startSize=8;endFill=1;endSize=8;fontFamily=Verdana;fontSize=12;" parent="1" source="1fdf3b25b50cf41e-21" target="1fdf3b25b50cf41e-26" edge="1">
          <mxGeometry relative="1" as="geometry" />
        </mxCell>
        <mxCell id="1fdf3b25b50cf41e-21" value="1.7" style="swimlane;html=1;fontStyle=0;childLayout=stackLayout;horizontal=1;startSize=26;fillColor=#e0e0e0;horizontalStack=0;resizeParent=1;resizeLast=0;collapsible=1;marginBottom=0;swimlaneFillColor=#ffffff;align=center;rounded=1;shadow=0;comic=0;labelBackgroundColor=none;strokeWidth=1;fontFamily=Verdana;fontSize=12" parent="1" vertex="1">
          <mxGeometry x="410" y="1613.9099999999999" width="140" height="52" as="geometry" />
        </mxCell>
        <mxCell id="1fdf3b25b50cf41e-22" value="Row 1" style="text;html=1;strokeColor=none;fillColor=none;spacingLeft=4;spacingRight=4;whiteSpace=wrap;overflow=hidden;rotatable=0;points=[[0,0.5],[1,0.5]];portConstraint=eastwest;align=center;" parent="1fdf3b25b50cf41e-21" vertex="1">
          <mxGeometry y="26" width="140" height="26" as="geometry" />
        </mxCell>
        <mxCell id="1fdf3b25b50cf41e-41" style="edgeStyle=orthogonalEdgeStyle;html=1;labelBackgroundColor=none;startFill=0;startSize=8;endFill=1;endSize=8;fontFamily=Verdana;fontSize=12;" parent="1" source="1fdf3b25b50cf41e-25" target="1fdf3b25b50cf41e-9" edge="1">
          <mxGeometry relative="1" as="geometry">
            <Array as="points">
              <mxPoint x="100" y="1352.9099999999999" />
            </Array>
          </mxGeometry>
        </mxCell>
        <mxCell id="1fdf3b25b50cf41e-25" value="Object" style="whiteSpace=wrap;html=1;rounded=0;shadow=0;comic=0;labelBackgroundColor=none;strokeWidth=1;fontFamily=Verdana;fontSize=12;align=center;" parent="1" vertex="1">
          <mxGeometry x="40" y="1480.9099999999999" width="120" height="50" as="geometry" />
        </mxCell>
        <mxCell id="1fdf3b25b50cf41e-26" value="Object" style="whiteSpace=wrap;html=1;rounded=0;shadow=0;comic=0;labelBackgroundColor=none;strokeWidth=1;fontFamily=Verdana;fontSize=12;align=center;" parent="1" vertex="1">
          <mxGeometry x="420" y="1480.9099999999999" width="120" height="50" as="geometry" />
        </mxCell>
        <mxCell id="1fdf3b25b50cf41e-36" style="edgeStyle=none;html=1;labelBackgroundColor=none;startFill=0;startSize=8;endFill=1;endSize=8;fontFamily=Verdana;fontSize=12;" parent="1" source="1fdf3b25b50cf41e-34" target="1fdf3b25b50cf41e-15" edge="1">
          <mxGeometry relative="1" as="geometry" />
        </mxCell>
        <mxCell id="1fdf3b25b50cf41e-37" style="edgeStyle=none;html=1;labelBackgroundColor=none;startFill=0;startSize=8;endFill=1;endSize=8;fontFamily=Verdana;fontSize=12;" parent="1" source="1fdf3b25b50cf41e-34" target="1fdf3b25b50cf41e-11" edge="1">
          <mxGeometry relative="1" as="geometry" />
        </mxCell>
        <mxCell id="1fdf3b25b50cf41e-34" value="" style="ellipse;whiteSpace=wrap;html=1;rounded=1;shadow=0;comic=0;labelBackgroundColor=none;strokeWidth=1;fontFamily=Verdana;fontSize=12;align=center;" parent="1" vertex="1">
          <mxGeometry x="615" y="1338.9099999999999" width="30" height="30" as="geometry" />
        </mxCell>
        <mxCell id="vlWfW26GA2w-NV4Ox5dc-1" style="edgeStyle=none;html=1;labelBackgroundColor=none;startFill=0;startSize=8;endFill=1;endSize=8;fontFamily=Verdana;fontSize=12;" edge="1" parent="1" source="vlWfW26GA2w-NV4Ox5dc-2">
          <mxGeometry relative="1" as="geometry">
            <mxPoint x="600" y="80" as="targetPoint" />
          </mxGeometry>
        </mxCell>
        <mxCell id="vlWfW26GA2w-NV4Ox5dc-2" value="&lt;div&gt;Student will Complete the pretest&lt;br&gt;&lt;/div&gt;" style="whiteSpace=wrap;html=1;rounded=0;shadow=0;comic=0;labelBackgroundColor=none;strokeWidth=1;fontFamily=Verdana;fontSize=12;align=center;" vertex="1" parent="1">
          <mxGeometry x="320" y="40" width="160" height="80" as="geometry" />
        </mxCell>
        <mxCell id="vlWfW26GA2w-NV4Ox5dc-4" value="Collect the exam related information from the student ( info point 1)" style="whiteSpace=wrap;html=1;rounded=0;shadow=0;comic=0;labelBackgroundColor=none;strokeWidth=1;fontFamily=Verdana;fontSize=12;align=center;" vertex="1" parent="1">
          <mxGeometry x="600" y="40" width="160" height="80" as="geometry" />
        </mxCell>
        <mxCell id="vlWfW26GA2w-NV4Ox5dc-41" style="edgeStyle=none;html=1;labelBackgroundColor=none;startFill=0;startSize=8;endFill=1;endSize=8;fontFamily=Verdana;fontSize=12;" edge="1" parent="1">
          <mxGeometry relative="1" as="geometry">
            <mxPoint x="880" y="80" as="targetPoint" />
            <mxPoint x="759.9999999999998" y="79.99999999999989" as="sourcePoint" />
          </mxGeometry>
        </mxCell>
        <mxCell id="vlWfW26GA2w-NV4Ox5dc-53" value="" style="edgeStyle=orthogonalEdgeStyle;rounded=0;orthogonalLoop=1;jettySize=auto;html=1;" edge="1" parent="1" source="vlWfW26GA2w-NV4Ox5dc-42" target="vlWfW26GA2w-NV4Ox5dc-50">
          <mxGeometry relative="1" as="geometry" />
        </mxCell>
        <mxCell id="vlWfW26GA2w-NV4Ox5dc-42" value="&lt;div&gt;Ask the student to select a mastery (high/normal/low)&lt;br&gt;( info point 2 )&lt;/div&gt;" style="whiteSpace=wrap;html=1;rounded=0;shadow=0;comic=0;labelBackgroundColor=none;strokeWidth=1;fontFamily=Verdana;fontSize=12;align=center;" vertex="1" parent="1">
          <mxGeometry x="880" y="40" width="160" height="80" as="geometry" />
        </mxCell>
        <mxCell id="vlWfW26GA2w-NV4Ox5dc-48" value="Student will hit build study plan" style="whiteSpace=wrap;html=1;rounded=0;shadow=0;comic=0;labelBackgroundColor=none;strokeWidth=1;fontFamily=Verdana;fontSize=12;align=center;" vertex="1" parent="1">
          <mxGeometry x="600" y="160" width="160" height="80" as="geometry" />
        </mxCell>
        <mxCell id="vlWfW26GA2w-NV4Ox5dc-50" value="Show the student time each mastery will take based on the logic" style="whiteSpace=wrap;html=1;rounded=0;shadow=0;comic=0;labelBackgroundColor=none;strokeWidth=1;fontFamily=Verdana;fontSize=12;align=center;" vertex="1" parent="1">
          <mxGeometry x="880" y="160" width="160" height="80" as="geometry" />
        </mxCell>
        <mxCell id="vlWfW26GA2w-NV4Ox5dc-52" style="edgeStyle=none;html=1;labelBackgroundColor=none;startFill=0;startSize=8;endFill=1;endSize=8;fontFamily=Verdana;fontSize=12;entryX=1;entryY=0.5;entryDx=0;entryDy=0;exitX=0;exitY=0.5;exitDx=0;exitDy=0;" edge="1" parent="1">
          <mxGeometry relative="1" as="geometry">
            <mxPoint x="760" y="199.09" as="targetPoint" />
            <mxPoint x="880" y="199.09" as="sourcePoint" />
          </mxGeometry>
        </mxCell>
        <mxCell id="vlWfW26GA2w-NV4Ox5dc-72" value="" style="edgeStyle=orthogonalEdgeStyle;rounded=0;orthogonalLoop=1;jettySize=auto;html=1;" edge="1" parent="1" source="vlWfW26GA2w-NV4Ox5dc-55" target="vlWfW26GA2w-NV4Ox5dc-71">
          <mxGeometry relative="1" as="geometry" />
        </mxCell>
        <mxCell id="vlWfW26GA2w-NV4Ox5dc-55" value="&lt;div&gt;Schedule CPO Items for Round 1&lt;/div&gt;" style="whiteSpace=wrap;html=1;rounded=0;shadow=0;comic=0;labelBackgroundColor=none;strokeWidth=1;fontFamily=Verdana;fontSize=12;align=center;" vertex="1" parent="1">
          <mxGeometry x="40" y="320" width="160" height="80" as="geometry" />
        </mxCell>
        <mxCell id="vlWfW26GA2w-NV4Ox5dc-56" style="edgeStyle=none;html=1;labelBackgroundColor=none;startFill=0;startSize=8;endFill=1;endSize=8;fontFamily=Verdana;fontSize=12;" edge="1" parent="1">
          <mxGeometry relative="1" as="geometry">
            <mxPoint x="520" y="360" as="targetPoint" />
            <mxPoint x="400.0000000000002" y="360" as="sourcePoint" />
          </mxGeometry>
        </mxCell>
        <mxCell id="vlWfW26GA2w-NV4Ox5dc-58" value="Schedule CPO Items for Round 2" style="whiteSpace=wrap;html=1;rounded=0;shadow=0;comic=0;labelBackgroundColor=none;strokeWidth=1;fontFamily=Verdana;fontSize=12;align=center;" vertex="1" parent="1">
          <mxGeometry x="520" y="320" width="160" height="80" as="geometry" />
        </mxCell>
        <mxCell id="vlWfW26GA2w-NV4Ox5dc-65" value="Study Start Date" style="text;html=1;strokeColor=none;fillColor=none;align=center;verticalAlign=middle;whiteSpace=wrap;rounded=0;" vertex="1" parent="1">
          <mxGeometry x="40" y="280" width="160" height="30" as="geometry" />
        </mxCell>
        <mxCell id="vlWfW26GA2w-NV4Ox5dc-66" value="After 2 days" style="text;html=1;strokeColor=none;fillColor=none;align=center;verticalAlign=middle;whiteSpace=wrap;rounded=0;" vertex="1" parent="1">
          <mxGeometry x="200" y="320" width="120" height="30" as="geometry" />
        </mxCell>
        <mxCell id="vlWfW26GA2w-NV4Ox5dc-71" value="Block&lt;br&gt;date ?" style="rhombus;whiteSpace=wrap;html=1;fontFamily=Verdana;rounded=0;shadow=0;comic=0;labelBackgroundColor=none;strokeWidth=1;" vertex="1" parent="1">
          <mxGeometry x="320" y="320" width="80" height="80" as="geometry" />
        </mxCell>
        <mxCell id="vlWfW26GA2w-NV4Ox5dc-73" value="No" style="text;html=1;strokeColor=none;fillColor=none;align=center;verticalAlign=middle;whiteSpace=wrap;rounded=0;" vertex="1" parent="1">
          <mxGeometry x="400" y="330" width="120" height="30" as="geometry" />
        </mxCell>
        <mxCell id="vlWfW26GA2w-NV4Ox5dc-74" value="" style="endArrow=classic;html=1;rounded=0;exitX=0;exitY=1;exitDx=0;exitDy=0;" edge="1" parent="1" source="vlWfW26GA2w-NV4Ox5dc-71">
          <mxGeometry width="50" height="50" relative="1" as="geometry">
            <mxPoint x="470" y="310" as="sourcePoint" />
            <mxPoint x="340" y="480" as="targetPoint" />
            <Array as="points" />
          </mxGeometry>
        </mxCell>
        <mxCell id="vlWfW26GA2w-NV4Ox5dc-75" value="" style="endArrow=classic;html=1;rounded=0;entryX=1;entryY=1;entryDx=0;entryDy=0;" edge="1" parent="1" target="vlWfW26GA2w-NV4Ox5dc-71">
          <mxGeometry width="50" height="50" relative="1" as="geometry">
            <mxPoint x="380" y="480" as="sourcePoint" />
            <mxPoint x="350" y="490" as="targetPoint" />
            <Array as="points" />
          </mxGeometry>
        </mxCell>
        <mxCell id="vlWfW26GA2w-NV4Ox5dc-76" value="Increase a day from previously defined days" style="whiteSpace=wrap;html=1;rounded=0;shadow=0;comic=0;labelBackgroundColor=none;strokeWidth=1;fontFamily=Verdana;fontSize=12;align=center;" vertex="1" parent="1">
          <mxGeometry x="280" y="480" width="160" height="80" as="geometry" />
        </mxCell>
        <mxCell id="vlWfW26GA2w-NV4Ox5dc-77" value="Yes" style="text;html=1;strokeColor=none;fillColor=none;align=center;verticalAlign=middle;whiteSpace=wrap;rounded=0;" vertex="1" parent="1">
          <mxGeometry x="290" y="410" width="50" height="30" as="geometry" />
        </mxCell>
        <mxCell id="vlWfW26GA2w-NV4Ox5dc-79" value="" style="edgeStyle=orthogonalEdgeStyle;rounded=0;orthogonalLoop=1;jettySize=auto;html=1;" edge="1" parent="1" target="vlWfW26GA2w-NV4Ox5dc-83">
          <mxGeometry relative="1" as="geometry">
            <mxPoint x="680" y="360" as="sourcePoint" />
          </mxGeometry>
        </mxCell>
        <mxCell id="vlWfW26GA2w-NV4Ox5dc-80" style="edgeStyle=none;html=1;labelBackgroundColor=none;startFill=0;startSize=8;endFill=1;endSize=8;fontFamily=Verdana;fontSize=12;" edge="1" parent="1">
          <mxGeometry relative="1" as="geometry">
            <mxPoint x="1000" y="360" as="targetPoint" />
            <mxPoint x="880.0000000000002" y="360" as="sourcePoint" />
          </mxGeometry>
        </mxCell>
        <mxCell id="vlWfW26GA2w-NV4Ox5dc-81" value="Schedule CPO Items for Round 2" style="whiteSpace=wrap;html=1;rounded=0;shadow=0;comic=0;labelBackgroundColor=none;strokeWidth=1;fontFamily=Verdana;fontSize=12;align=center;" vertex="1" parent="1">
          <mxGeometry x="1000" y="320" width="160" height="80" as="geometry" />
        </mxCell>
        <mxCell id="vlWfW26GA2w-NV4Ox5dc-82" value="Check half" style="text;html=1;strokeColor=none;fillColor=none;align=center;verticalAlign=middle;whiteSpace=wrap;rounded=0;" vertex="1" parent="1">
          <mxGeometry x="680" y="320" width="120" height="30" as="geometry" />
        </mxCell>
        <mxCell id="vlWfW26GA2w-NV4Ox5dc-83" value="Block&lt;br&gt;date ?" style="rhombus;whiteSpace=wrap;html=1;fontFamily=Verdana;rounded=0;shadow=0;comic=0;labelBackgroundColor=none;strokeWidth=1;" vertex="1" parent="1">
          <mxGeometry x="800" y="320" width="80" height="80" as="geometry" />
        </mxCell>
        <mxCell id="vlWfW26GA2w-NV4Ox5dc-84" value="No" style="text;html=1;strokeColor=none;fillColor=none;align=center;verticalAlign=middle;whiteSpace=wrap;rounded=0;" vertex="1" parent="1">
          <mxGeometry x="880" y="330" width="120" height="30" as="geometry" />
        </mxCell>
        <mxCell id="vlWfW26GA2w-NV4Ox5dc-85" value="" style="endArrow=classic;html=1;rounded=0;exitX=0;exitY=1;exitDx=0;exitDy=0;" edge="1" parent="1" source="vlWfW26GA2w-NV4Ox5dc-83">
          <mxGeometry width="50" height="50" relative="1" as="geometry">
            <mxPoint x="950" y="310" as="sourcePoint" />
            <mxPoint x="820" y="480" as="targetPoint" />
            <Array as="points" />
          </mxGeometry>
        </mxCell>
        <mxCell id="vlWfW26GA2w-NV4Ox5dc-86" value="" style="endArrow=classic;html=1;rounded=0;entryX=1;entryY=1;entryDx=0;entryDy=0;" edge="1" parent="1" target="vlWfW26GA2w-NV4Ox5dc-83">
          <mxGeometry width="50" height="50" relative="1" as="geometry">
            <mxPoint x="860" y="480" as="sourcePoint" />
            <mxPoint x="830" y="490" as="targetPoint" />
            <Array as="points" />
          </mxGeometry>
        </mxCell>
        <mxCell id="vlWfW26GA2w-NV4Ox5dc-87" value="Increase a day from previously defined days" style="whiteSpace=wrap;html=1;rounded=0;shadow=0;comic=0;labelBackgroundColor=none;strokeWidth=1;fontFamily=Verdana;fontSize=12;align=center;" vertex="1" parent="1">
          <mxGeometry x="760" y="480" width="160" height="80" as="geometry" />
        </mxCell>
        <mxCell id="vlWfW26GA2w-NV4Ox5dc-88" value="Yes" style="text;html=1;strokeColor=none;fillColor=none;align=center;verticalAlign=middle;whiteSpace=wrap;rounded=0;" vertex="1" parent="1">
          <mxGeometry x="770" y="410" width="50" height="30" as="geometry" />
        </mxCell>
      </root>
    </mxGraphModel>
  </diagram>
</mxfile>
